<?xml version="1.0" standalone="no"?>
<!DOCTYPE svg PUBLIC "-//W3C//DTD SVG 20010904//EN"
 "http://www.w3.org/TR/2001/REC-SVG-20010904/DTD/svg10.dtd">
<svg version="1.0" xmlns="http://www.w3.org/2000/svg"
 width="1353.000000pt" height="1353.000000pt" viewBox="0 0 1353.000000 1353.000000"
 preserveAspectRatio="xMidYMid meet">
<metadata>
Created by potrace 1.11, written by Peter Selinger 2001-2013
</metadata>
<g transform="translate(0.000000,1353.000000) scale(0.100000,-0.100000)"
fill="#000000" stroke="none">
<path d="M8108 13445 c-2 -1 -43 -5 -93 -8 -299 -20 -611 -148 -873 -358 -168
-135 -282 -255 -439 -464 -38 -49 -87 -104 -111 -122 -127 -97 -307 -76 -447
53 -154 141 -445 288 -705 355 -140 37 -132 35 -205 44 -33 4 -69 9 -80 11
-29 6 -276 6 -305 0 -14 -3 -42 -7 -62 -10 -106 -16 -255 -67 -357 -123 -127
-70 -162 -90 -231 -136 -104 -69 -202 -149 -287 -234 -70 -71 -168 -193 -193
-243 -7 -14 -16 -27 -19 -30 -25 -20 -122 -248 -155 -360 -37 -130 -69 -333
-81 -515 -18 -273 -25 -353 -40 -440 -29 -169 -125 -329 -213 -354 -17 -5
-116 -10 -219 -11 -103 -1 -206 -3 -228 -5 -116 -8 -202 -16 -215 -20 -8 -2
-31 -7 -50 -10 -334 -56 -625 -236 -794 -489 -76 -113 -157 -286 -181 -382 -3
-10 -16 -66 -30 -124 -24 -102 -28 -125 -40 -220 -3 -25 -7 -58 -10 -75 -23
-140 -23 -514 0 -656 2 -13 6 -46 10 -74 3 -27 8 -57 10 -65 2 -8 6 -26 9 -40
2 -14 10 -47 16 -75 6 -27 13 -57 15 -66 6 -27 45 -153 54 -174 5 -11 24 -58
41 -104 148 -383 464 -786 870 -1107 41 -32 77 -61 80 -65 19 -21 455 -319
834 -568 49 -32 117 -125 135 -185 18 -59 19 -158 18 -2861 l-1 -2800 28 -62
c46 -101 144 -179 251 -199 38 -7 2542 -7 5015 0 1030 3 1139 5 1179 20 83 31
148 92 188 176 34 71 34 105 8 565 -3 39 -7 117 -10 175 -5 105 -12 229 -20
370 -3 41 -7 127 -10 190 -4 63 -8 138 -9 165 -2 28 -7 109 -10 180 -4 72 -8
168 -11 215 -13 242 -22 395 -30 555 -3 61 -8 142 -10 180 -2 39 -7 122 -10
185 -3 63 -8 147 -10 185 -2 39 -6 120 -10 180 -3 61 -8 144 -10 185 -3 41 -7
120 -10 175 -3 55 -8 132 -10 170 -3 39 -7 122 -10 185 -3 63 -7 144 -10 180
-2 36 -7 117 -10 180 -3 63 -7 151 -10 195 -2 44 -7 132 -10 195 -3 63 -8 144
-10 180 -5 76 -18 314 -31 580 -12 234 -7 490 10 576 7 33 46 116 83 179 93
153 274 366 495 580 175 169 194 186 428 378 198 163 389 346 487 467 304 377
533 880 604 1330 6 41 13 82 14 91 18 93 24 359 12 496 -21 233 -86 465 -185
658 -36 69 -119 205 -131 215 -4 3 -15 18 -24 33 -36 56 -159 176 -232 227
-127 87 -314 163 -455 184 -25 4 -70 11 -100 16 -58 9 -387 6 -455 -4 -22 -4
-89 -15 -148 -25 -152 -26 -211 -17 -304 45 -54 37 -92 84 -118 147 -16 38
-21 69 -29 177 -17 205 -44 380 -87 555 -33 134 -73 264 -95 312 -7 17 -14 34
-14 38 0 18 -79 189 -122 264 -26 46 -48 85 -48 87 0 7 -91 137 -129 184 -58
73 -211 222 -284 276 -177 132 -371 219 -607 273 -118 27 -141 31 -260 37 -58
3 -113 7 -122 8 -9 2 -18 3 -20 1z"/>
</g>
</svg>
